<svg xmlns="http://www.w3.org/2000/svg" viewBox="0 0 94.75 33.0" width="1137.0" height="396.0"><rect width="94.75" height="33.0" rx=".4" fill="#135246"/><path d="M50.25,26.5 L50.25,28.0" fill="none" stroke="#2b8975" stroke-width="0.3" stroke-linecap="round"/><path d="M52.25,26.5 L50.25,26.5" fill="none" stroke="#2b8975" stroke-width="0.3" stroke-linecap="round"/><path d="M51.75,9.0 L51.75,7.5" fill="none" stroke="#2b8975" stroke-width="0.3" stroke-linecap="round"/><path d="M64.3,7.5 L64.25,7.5" fill="none" stroke="#2b8975" stroke-width="0.3" stroke-linecap="round"/><path d="M40.5,20.75 L40.5,18.25" fill="none" stroke="#2b8975" stroke-width="0.3" stroke-linecap="round"/><path d="M37.0,20.75 L40.5,20.75" fill="none" stroke="#2b8975" stroke-width="0.3" stroke-linecap="round"/><path d="M50.25,28.0 L37.0,28.0" fill="none" stroke="#2b8975" stroke-width="0.3" stroke-linecap="round"/><path d="M40.5,9.0 L51.75,9.0" fill="none" stroke="#2b8975" stroke-width="0.3" stroke-linecap="round"/><path d="M64.25,7.5 L51.75,7.5" fill="none" stroke="#2b8975" stroke-width="0.3" stroke-linecap="round"/><path d="M24.25,9.0 L24.25,7.5" fill="none" stroke="#2b8975" stroke-width="0.3" stroke-linecap="round"/><path d="M24.25,7.5 L11.75,7.5" fill="none" stroke="#2b8975" stroke-width="0.3" stroke-linecap="round"/><path d="M36.25,9.0 L24.25,9.0" fill="none" stroke="#2b8975" stroke-width="0.3" stroke-linecap="round"/><path d="M24.3,7.5 L24.25,7.5" fill="none" stroke="#2b8975" stroke-width="0.3" stroke-linecap="round"/><path d="M37.0,30.25 L35.5,30.25" fill="none" stroke="#2b8975" stroke-width="0.3" stroke-linecap="round"/><path d="M35.5,7.5 L31.75,7.5" fill="none" stroke="#2b8975" stroke-width="0.3" stroke-linecap="round"/><path d="M44.3,7.5 L44.25,7.5" fill="none" stroke="#2b8975" stroke-width="0.3" stroke-linecap="round"/><path d="M44.25,7.5 L35.5,7.5" fill="none" stroke="#2b8975" stroke-width="0.3" stroke-linecap="round"/><path d="M65.75,7.5 L65.75,9.0" fill="none" stroke="#2b8975" stroke-width="0.3" stroke-linecap="round"/><path d="M84.3,7.5 L84.25,7.5" fill="none" stroke="#2b8975" stroke-width="0.3" stroke-linecap="round"/><path d="M56.75,31.75 L51.5,31.75" fill="none" stroke="#2b8975" stroke-width="0.3" stroke-linecap="round"/><path d="M84.25,7.5 L71.75,7.5" fill="none" stroke="#2b8975" stroke-width="0.3" stroke-linecap="round"/><path d="M71.8,7.5 L71.75,7.5" fill="none" stroke="#2b8975" stroke-width="0.3" stroke-linecap="round"/><path d="M71.75,7.5 L65.75,7.5" fill="none" stroke="#2b8975" stroke-width="0.3" stroke-linecap="round"/><path d="M65.75,9.0 L60.0,9.0" fill="none" stroke="#2b8975" stroke-width="0.3" stroke-linecap="round"/><path d="M16.5,20.25 L16.5,20.0" fill="none" stroke="#2b8975" stroke-width="0.3" stroke-linecap="round"/><path d="M32.75,20.25 L16.5,20.25" fill="none" stroke="#2b8975" stroke-width="0.3" stroke-linecap="round"/><path d="M53.0,28.75 L34.5,28.75" fill="none" stroke="#2b8975" stroke-width="0.3" stroke-linecap="round"/><path d="M51.5,17.25 L53.0,17.25" fill="none" stroke="#2b8975" stroke-width="0.3" stroke-linecap="round"/><path d="M71.0,21.75 L71.0,23.0" fill="none" stroke="#2b8975" stroke-width="0.3" stroke-linecap="round"/><path d="M18.0,23.0 L71.0,23.0" fill="none" stroke="#2b8975" stroke-width="0.3" stroke-linecap="round"/><path d="M49.5,27.25 L49.5,23.0" fill="none" stroke="#2b8975" stroke-width="0.3" stroke-linecap="round"/><path d="M13.25,20.75 L13.25,22.5" fill="none" stroke="#2b8975" stroke-width="0.3" stroke-linecap="round"/><path d="M69.0,21.75 L69.0,22.25" fill="none" stroke="#2b8975" stroke-width="0.3" stroke-linecap="round"/><path d="M50.75,19.5 L55.75,19.5" fill="none" stroke="#2b8975" stroke-width="0.3" stroke-linecap="round"/><path d="M16.0,22.25 L69.0,22.25" fill="none" stroke="#2b8975" stroke-width="0.3" stroke-linecap="round"/><path d="M16.0,20.75 L13.25,20.75" fill="none" stroke="#2b8975" stroke-width="0.3" stroke-linecap="round"/><path d="M16.0,22.5 L16.0,22.25" fill="none" stroke="#2b8975" stroke-width="0.3" stroke-linecap="round"/><path d="M13.25,22.5 L16.0,22.5" fill="none" stroke="#2b8975" stroke-width="0.3" stroke-linecap="round"/><path d="M14.0,21.75 L14.0,21.5" fill="none" stroke="#2b8975" stroke-width="0.3" stroke-linecap="round"/><path d="M50.0,18.75 L50.0,21.5" fill="none" stroke="#2b8975" stroke-width="0.3" stroke-linecap="round"/><path d="M14.0,21.5 L67.0,21.5" fill="none" stroke="#2b8975" stroke-width="0.3" stroke-linecap="round"/><path d="M37.0,18.75 L32.75,18.75" fill="none" stroke="#2b8975" stroke-width="0.3" stroke-linecap="round"/><path d="M73.0,16.5 L52.25,16.5" fill="none" stroke="#2b8975" stroke-width="0.3" stroke-linecap="round"/><path d="M62.75,31.5 L57.5,31.5" fill="none" stroke="#2b8975" stroke-width="0.3" stroke-linecap="round"/><path d="M57.5,31.0 L50.75,31.0" fill="none" stroke="#2b8975" stroke-width="0.3" stroke-linecap="round"/><path d="M57.5,31.5 L57.5,31.0" fill="none" stroke="#2b8975" stroke-width="0.3" stroke-linecap="round"/><rect x="88.55" y="3.3" width="3.4" height="3.4" rx="1.7" fill="#c5b47a" transform="rotate(0 90.25 5.0)"/><rect x="28.3" y="26.3" width="3.4" height="3.4" rx="1.7" fill="#c5b47a" transform="rotate(0 30.0 28.0)"/><rect x="3.3" y="26.3" width="3.4" height="3.4" rx="1.7" fill="#c5b47a" transform="rotate(0 5.0 28.0)"/><rect x="57.15" y="13.6" width="1.8" height="1.8" rx="0.9" fill="#c5b47a" transform="rotate(0 58.05 14.5)"/><rect x="63.199999999999996" y="11.4" width="2.2" height="2.2" rx="1.1" fill="#c5b47a" transform="rotate(0 64.3 12.5)"/><rect x="50.699999999999996" y="11.4" width="2.2" height="2.2" rx="1.1" fill="#c5b47a" transform="rotate(0 51.8 12.5)"/><rect x="63.199999999999996" y="6.4" width="2.2" height="2.2" rx="1.1" fill="#c5b47a" transform="rotate(0 64.3 7.5)"/><rect x="50.699999999999996" y="6.4" width="2.2" height="2.2" rx="1.1" fill="#c5b47a" transform="rotate(0 51.8 7.5)"/><rect x="61.06" y="4.120000000000002" width="1.6" height="1.6" rx="0.8" fill="#c5b47a" transform="rotate(0 61.86 4.920000000000002)"/><rect x="53.440000000000005" y="14.279999999999998" width="1.6" height="1.6" rx="0.8" fill="#c5b47a" transform="rotate(0 54.24 15.079999999999998)"/><rect x="17.150000000000002" y="13.6" width="1.8" height="1.8" rx="0.9" fill="#c5b47a" transform="rotate(0 18.05 14.5)"/><rect x="23.2" y="11.4" width="2.2" height="2.2" rx="1.1" fill="#c5b47a" transform="rotate(0 24.3 12.5)"/><rect x="10.700000000000001" y="11.4" width="2.2" height="2.2" rx="1.1" fill="#c5b47a" transform="rotate(0 11.8 12.5)"/><rect x="23.2" y="6.4" width="2.2" height="2.2" rx="1.1" fill="#c5b47a" transform="rotate(0 24.3 7.5)"/><rect x="10.700000000000001" y="6.4" width="2.2" height="2.2" rx="1.1" fill="#c5b47a" transform="rotate(0 11.8 7.5)"/><rect x="21.06" y="4.120000000000002" width="1.6" height="1.6" rx="0.8" fill="#c5b47a" transform="rotate(0 21.86 4.920000000000002)"/><rect x="13.44" y="14.279999999999998" width="1.6" height="1.6" rx="0.8" fill="#c5b47a" transform="rotate(0 14.24 15.079999999999998)"/><rect x="37.15" y="13.6" width="1.8" height="1.8" rx="0.9" fill="#c5b47a" transform="rotate(0 38.05 14.5)"/><rect x="43.199999999999996" y="11.4" width="2.2" height="2.2" rx="1.1" fill="#c5b47a" transform="rotate(0 44.3 12.5)"/><rect x="30.7" y="11.4" width="2.2" height="2.2" rx="1.1" fill="#c5b47a" transform="rotate(0 31.8 12.5)"/><rect x="43.199999999999996" y="6.4" width="2.2" height="2.2" rx="1.1" fill="#c5b47a" transform="rotate(0 44.3 7.5)"/><rect x="30.7" y="6.4" width="2.2" height="2.2" rx="1.1" fill="#c5b47a" transform="rotate(0 31.8 7.5)"/><rect x="41.06" y="4.120000000000002" width="1.6" height="1.6" rx="0.8" fill="#c5b47a" transform="rotate(0 41.86 4.920000000000002)"/><rect x="33.440000000000005" y="14.279999999999998" width="1.6" height="1.6" rx="0.8" fill="#c5b47a" transform="rotate(0 34.24 15.079999999999998)"/><rect x="77.14999999999999" y="13.6" width="1.8" height="1.8" rx="0.9" fill="#c5b47a" transform="rotate(0 78.05 14.5)"/><rect x="83.2" y="11.4" width="2.2" height="2.2" rx="1.1" fill="#c5b47a" transform="rotate(0 84.3 12.5)"/><rect x="70.7" y="11.4" width="2.2" height="2.2" rx="1.1" fill="#c5b47a" transform="rotate(0 71.8 12.5)"/><rect x="83.2" y="6.4" width="2.2" height="2.2" rx="1.1" fill="#c5b47a" transform="rotate(0 84.3 7.5)"/><rect x="70.7" y="6.4" width="2.2" height="2.2" rx="1.1" fill="#c5b47a" transform="rotate(0 71.8 7.5)"/><rect x="81.06" y="4.120000000000002" width="1.6" height="1.6" rx="0.8" fill="#c5b47a" transform="rotate(0 81.86 4.920000000000002)"/><rect x="73.44" y="14.279999999999998" width="1.6" height="1.6" rx="0.8" fill="#c5b47a" transform="rotate(0 74.24 15.079999999999998)"/><rect x="88.55" y="26.3" width="3.4" height="3.4" rx="1.7" fill="#c5b47a" transform="rotate(0 90.25 28.0)"/><rect x="3.3" y="3.3" width="3.4" height="3.4" rx="1.7" fill="#c5b47a" transform="rotate(0 5.0 5.0)"/><rect x="58.3" y="26.3" width="3.4" height="3.4" rx="1.7" fill="#c5b47a" transform="rotate(0 60.0 28.0)"/><circle cx="50.75" cy="18.0" r="0.3" fill="#9a9e6e"/><circle cx="50.75" cy="18.0" r="0.15" fill="#102820"/><circle cx="25.75" cy="19.5" r="0.3" fill="#9a9e6e"/><circle cx="25.75" cy="19.5" r="0.15" fill="#102820"/><circle cx="26.25" cy="17.5" r="0.3" fill="#9a9e6e"/><circle cx="26.25" cy="17.5" r="0.15" fill="#102820"/><circle cx="50.0" cy="30.25" r="0.3" fill="#9a9e6e"/><circle cx="50.0" cy="30.25" r="0.15" fill="#102820"/><circle cx="37.0" cy="28.0" r="0.3" fill="#9a9e6e"/><circle cx="37.0" cy="28.0" r="0.15" fill="#102820"/><circle cx="52.25" cy="26.5" r="0.3" fill="#9a9e6e"/><circle cx="52.25" cy="26.5" r="0.15" fill="#102820"/><circle cx="37.0" cy="20.75" r="0.3" fill="#9a9e6e"/><circle cx="37.0" cy="20.75" r="0.15" fill="#102820"/><circle cx="40.5" cy="9.0" r="0.3" fill="#9a9e6e"/><circle cx="40.5" cy="9.0" r="0.15" fill="#102820"/><circle cx="40.5" cy="18.25" r="0.3" fill="#9a9e6e"/><circle cx="40.5" cy="18.25" r="0.15" fill="#102820"/><circle cx="36.25" cy="9.0" r="0.3" fill="#9a9e6e"/><circle cx="36.25" cy="9.0" r="0.15" fill="#102820"/><circle cx="37.0" cy="30.25" r="0.3" fill="#9a9e6e"/><circle cx="37.0" cy="30.25" r="0.15" fill="#102820"/><circle cx="35.5" cy="7.5" r="0.3" fill="#9a9e6e"/><circle cx="35.5" cy="7.5" r="0.15" fill="#102820"/><circle cx="35.5" cy="30.25" r="0.3" fill="#9a9e6e"/><circle cx="35.5" cy="30.25" r="0.15" fill="#102820"/><circle cx="51.5" cy="31.75" r="0.3" fill="#9a9e6e"/><circle cx="51.5" cy="31.75" r="0.15" fill="#102820"/><circle cx="60.0" cy="9.0" r="0.3" fill="#9a9e6e"/><circle cx="60.0" cy="9.0" r="0.15" fill="#102820"/><circle cx="56.75" cy="31.75" r="0.3" fill="#9a9e6e"/><circle cx="56.75" cy="31.75" r="0.15" fill="#102820"/><circle cx="16.5" cy="20.0" r="0.3" fill="#9a9e6e"/><circle cx="16.5" cy="20.0" r="0.15" fill="#102820"/><circle cx="34.5" cy="28.75" r="0.3" fill="#9a9e6e"/><circle cx="34.5" cy="28.75" r="0.15" fill="#102820"/><circle cx="53.0" cy="28.75" r="0.3" fill="#9a9e6e"/><circle cx="53.0" cy="28.75" r="0.15" fill="#102820"/><circle cx="32.75" cy="20.25" r="0.3" fill="#9a9e6e"/><circle cx="32.75" cy="20.25" r="0.15" fill="#102820"/><circle cx="24.25" cy="23.0" r="0.3" fill="#9a9e6e"/><circle cx="24.25" cy="23.0" r="0.15" fill="#102820"/><circle cx="53.75" cy="23.0" r="0.3" fill="#9a9e6e"/><circle cx="53.75" cy="23.0" r="0.15" fill="#102820"/><circle cx="71.0" cy="21.75" r="0.3" fill="#9a9e6e"/><circle cx="71.0" cy="21.75" r="0.15" fill="#102820"/><circle cx="49.5" cy="27.25" r="0.3" fill="#9a9e6e"/><circle cx="49.5" cy="27.25" r="0.15" fill="#102820"/><circle cx="30.0" cy="23.0" r="0.3" fill="#9a9e6e"/><circle cx="30.0" cy="23.0" r="0.15" fill="#102820"/><circle cx="59.0" cy="23.0" r="0.3" fill="#9a9e6e"/><circle cx="59.0" cy="23.0" r="0.15" fill="#102820"/><circle cx="53.0" cy="17.25" r="0.3" fill="#9a9e6e"/><circle cx="53.0" cy="17.25" r="0.15" fill="#102820"/><circle cx="62.75" cy="23.0" r="0.3" fill="#9a9e6e"/><circle cx="62.75" cy="23.0" r="0.15" fill="#102820"/><circle cx="51.5" cy="17.25" r="0.3" fill="#9a9e6e"/><circle cx="51.5" cy="17.25" r="0.15" fill="#102820"/><circle cx="55.75" cy="22.25" r="0.3" fill="#9a9e6e"/><circle cx="55.75" cy="22.25" r="0.15" fill="#102820"/><circle cx="16.0" cy="20.75" r="0.3" fill="#9a9e6e"/><circle cx="16.0" cy="20.75" r="0.15" fill="#102820"/><circle cx="69.0" cy="21.75" r="0.3" fill="#9a9e6e"/><circle cx="69.0" cy="21.75" r="0.15" fill="#102820"/><circle cx="50.75" cy="19.5" r="0.3" fill="#9a9e6e"/><circle cx="50.75" cy="19.5" r="0.15" fill="#102820"/><circle cx="55.75" cy="19.5" r="0.3" fill="#9a9e6e"/><circle cx="55.75" cy="19.5" r="0.15" fill="#102820"/><circle cx="50.0" cy="18.75" r="0.3" fill="#9a9e6e"/><circle cx="50.0" cy="18.75" r="0.15" fill="#102820"/><circle cx="14.0" cy="21.75" r="0.3" fill="#9a9e6e"/><circle cx="14.0" cy="21.75" r="0.15" fill="#102820"/><circle cx="61.0" cy="21.5" r="0.3" fill="#9a9e6e"/><circle cx="61.0" cy="21.5" r="0.15" fill="#102820"/><circle cx="67.0" cy="21.5" r="0.3" fill="#9a9e6e"/><circle cx="67.0" cy="21.5" r="0.15" fill="#102820"/><circle cx="32.75" cy="18.75" r="0.3" fill="#9a9e6e"/><circle cx="32.75" cy="18.75" r="0.15" fill="#102820"/><circle cx="37.0" cy="18.75" r="0.3" fill="#9a9e6e"/><circle cx="37.0" cy="18.75" r="0.15" fill="#102820"/><circle cx="73.0" cy="16.5" r="0.3" fill="#9a9e6e"/><circle cx="73.0" cy="16.5" r="0.15" fill="#102820"/><circle cx="52.25" cy="16.5" r="0.3" fill="#9a9e6e"/><circle cx="52.25" cy="16.5" r="0.15" fill="#102820"/><circle cx="50.75" cy="31.0" r="0.3" fill="#9a9e6e"/><circle cx="50.75" cy="31.0" r="0.15" fill="#102820"/><circle cx="62.75" cy="31.5" r="0.3" fill="#9a9e6e"/><circle cx="62.75" cy="31.5" r="0.15" fill="#102820"/><circle cx="90.25" cy="5.0" r="1.7" fill="#0a1818"/><circle cx="30.0" cy="28.0" r="1.7" fill="#0a1818"/><circle cx="5.0" cy="28.0" r="1.7" fill="#0a1818"/><circle cx="58.05" cy="14.5" r="0.9" fill="#0a1818"/><circle cx="64.3" cy="12.5" r="0.6" fill="#0a1818"/><circle cx="51.8" cy="12.5" r="0.6" fill="#0a1818"/><circle cx="64.3" cy="7.5" r="0.6" fill="#0a1818"/><circle cx="51.8" cy="7.5" r="0.6" fill="#0a1818"/><circle cx="61.86" cy="4.920000000000002" r="0.4" fill="#0a1818"/><circle cx="54.24" cy="15.079999999999998" r="0.4" fill="#0a1818"/><circle cx="18.05" cy="14.5" r="0.9" fill="#0a1818"/><circle cx="24.3" cy="12.5" r="0.6" fill="#0a1818"/><circle cx="11.8" cy="12.5" r="0.6" fill="#0a1818"/><circle cx="24.3" cy="7.5" r="0.6" fill="#0a1818"/><circle cx="11.8" cy="7.5" r="0.6" fill="#0a1818"/><circle cx="21.86" cy="4.920000000000002" r="0.4" fill="#0a1818"/><circle cx="14.24" cy="15.079999999999998" r="0.4" fill="#0a1818"/><circle cx="38.05" cy="14.5" r="0.9" fill="#0a1818"/><circle cx="44.3" cy="12.5" r="0.6" fill="#0a1818"/><circle cx="31.8" cy="12.5" r="0.6" fill="#0a1818"/><circle cx="44.3" cy="7.5" r="0.6" fill="#0a1818"/><circle cx="31.8" cy="7.5" r="0.6" fill="#0a1818"/><circle cx="41.86" cy="4.920000000000002" r="0.4" fill="#0a1818"/><circle cx="34.24" cy="15.079999999999998" r="0.4" fill="#0a1818"/><circle cx="78.05" cy="14.5" r="0.9" fill="#0a1818"/><circle cx="84.3" cy="12.5" r="0.6" fill="#0a1818"/><circle cx="71.8" cy="12.5" r="0.6" fill="#0a1818"/><circle cx="84.3" cy="7.5" r="0.6" fill="#0a1818"/><circle cx="71.8" cy="7.5" r="0.6" fill="#0a1818"/><circle cx="81.86" cy="4.920000000000002" r="0.4" fill="#0a1818"/><circle cx="74.24" cy="15.079999999999998" r="0.4" fill="#0a1818"/><circle cx="90.25" cy="28.0" r="1.7" fill="#0a1818"/><circle cx="5.0" cy="5.0" r="1.7" fill="#0a1818"/><circle cx="60.0" cy="28.0" r="1.7" fill="#0a1818"/></svg>