<svg xmlns="http://www.w3.org/2000/svg" viewBox="0 0 82.5 53.7" width="990.0" height="644.4000000000001"><rect width="82.5" height="53.7" rx=".4" fill="#135246"/><path d="M52.25,28.200000000000003 L42.0,28.200000000000003" fill="none" stroke="#2b8975" stroke-width="0.3" stroke-linecap="round"/><path d="M52.3,28.200000000000003 L52.25,28.200000000000003" fill="none" stroke="#2b8975" stroke-width="0.3" stroke-linecap="round"/><path d="M44.0,52.45 L40.25,52.45" fill="none" stroke="#2b8975" stroke-width="0.3" stroke-linecap="round"/><path d="M41.25,34.95 L41.25,31.450000000000003" fill="none" stroke="#2b8975" stroke-width="0.3" stroke-linecap="round"/><path d="M40.25,34.95 L41.25,34.95" fill="none" stroke="#2b8975" stroke-width="0.3" stroke-linecap="round"/><path d="M41.25,31.450000000000003 L39.75,31.450000000000003" fill="none" stroke="#2b8975" stroke-width="0.3" stroke-linecap="round"/><path d="M45.5,50.95 L29.0,50.95" fill="none" stroke="#2b8975" stroke-width="0.3" stroke-linecap="round"/><path d="M32.3,28.200000000000003 L32.25,28.200000000000003" fill="none" stroke="#2b8975" stroke-width="0.3" stroke-linecap="round"/><path d="M32.25,28.200000000000003 L19.75,28.200000000000003" fill="none" stroke="#2b8975" stroke-width="0.3" stroke-linecap="round"/><path d="M52.3,7.490000000000002 L52.25,7.450000000000003" fill="none" stroke="#2b8975" stroke-width="0.3" stroke-linecap="round"/><path d="M41.25,28.950000000000003 L41.25,27.450000000000003" fill="none" stroke="#2b8975" stroke-width="0.3" stroke-linecap="round"/><path d="M44.75,51.7 L41.0,51.7" fill="none" stroke="#2b8975" stroke-width="0.3" stroke-linecap="round"/><path d="M52.25,7.450000000000003 L39.75,7.450000000000003" fill="none" stroke="#2b8975" stroke-width="0.3" stroke-linecap="round"/><path d="M46.0,44.45 L38.5,44.45" fill="none" stroke="#2b8975" stroke-width="0.3" stroke-linecap="round"/><path d="M32.3,7.490000000000002 L32.25,7.450000000000003" fill="none" stroke="#2b8975" stroke-width="0.3" stroke-linecap="round"/><path d="M32.25,7.450000000000003 L19.75,7.450000000000003" fill="none" stroke="#2b8975" stroke-width="0.3" stroke-linecap="round"/><path d="M38.0,7.450000000000003 L32.25,7.450000000000003" fill="none" stroke="#2b8975" stroke-width="0.3" stroke-linecap="round"/><path d="M72.25,28.200000000000003 L59.75,28.200000000000003" fill="none" stroke="#2b8975" stroke-width="0.3" stroke-linecap="round"/><path d="M72.3,28.200000000000003 L72.25,28.200000000000003" fill="none" stroke="#2b8975" stroke-width="0.3" stroke-linecap="round"/><path d="M72.25,7.450000000000003 L59.75,7.450000000000003" fill="none" stroke="#2b8975" stroke-width="0.3" stroke-linecap="round"/><path d="M69.0,29.700000000000003 L58.25,29.700000000000003" fill="none" stroke="#2b8975" stroke-width="0.3" stroke-linecap="round"/><path d="M69.0,44.45 L69.0,42.45" fill="none" stroke="#2b8975" stroke-width="0.3" stroke-linecap="round"/><path d="M59.75,44.45 L69.0,44.45" fill="none" stroke="#2b8975" stroke-width="0.3" stroke-linecap="round"/><path d="M72.3,7.490000000000002 L72.25,7.450000000000003" fill="none" stroke="#2b8975" stroke-width="0.3" stroke-linecap="round"/><path d="M45.5,39.45 L23.75,39.45" fill="none" stroke="#2b8975" stroke-width="0.3" stroke-linecap="round"/><path d="M33.75,21.450000000000003 L22.25,21.450000000000003" fill="none" stroke="#2b8975" stroke-width="0.3" stroke-linecap="round"/><path d="M39.25,34.95 L33.75,34.95" fill="none" stroke="#2b8975" stroke-width="0.3" stroke-linecap="round"/><path d="M46.0,40.2 L39.25,40.2" fill="none" stroke="#2b8975" stroke-width="0.3" stroke-linecap="round"/><path d="M67.25,42.45 L67.25,43.7" fill="none" stroke="#2b8975" stroke-width="0.3" stroke-linecap="round"/><path d="M26.0,43.7 L68.0,43.7" fill="none" stroke="#2b8975" stroke-width="0.3" stroke-linecap="round"/><path d="M60.0,37.95 L67.25,37.95" fill="none" stroke="#2b8975" stroke-width="0.3" stroke-linecap="round"/><path d="M58.5,50.95 L58.5,43.7" fill="none" stroke="#2b8975" stroke-width="0.3" stroke-linecap="round"/><path d="M28.0,42.95 L66.0,42.95" fill="none" stroke="#2b8975" stroke-width="0.3" stroke-linecap="round"/><path d="M66.0,42.45 L66.0,42.95" fill="none" stroke="#2b8975" stroke-width="0.3" stroke-linecap="round"/><path d="M64.5,41.45 L64.5,42.95" fill="none" stroke="#2b8975" stroke-width="0.3" stroke-linecap="round"/><path d="M58.0,41.45 L64.5,41.45" fill="none" stroke="#2b8975" stroke-width="0.3" stroke-linecap="round"/><path d="M58.5,39.45 L58.75,39.45" fill="none" stroke="#2b8975" stroke-width="0.3" stroke-linecap="round"/><path d="M32.0,42.2 L64.0,42.2" fill="none" stroke="#2b8975" stroke-width="0.3" stroke-linecap="round"/><path d="M58.75,39.45 L58.5,39.45" fill="none" stroke="#2b8975" stroke-width="0.3" stroke-linecap="round"/><path d="M44.75,38.7 L37.25,38.7" fill="none" stroke="#2b8975" stroke-width="0.3" stroke-linecap="round"/><path d="M37.25,21.450000000000003 L42.25,21.450000000000003" fill="none" stroke="#2b8975" stroke-width="0.3" stroke-linecap="round"/><path d="M37.25,38.7 L37.25,36.2" fill="none" stroke="#2b8975" stroke-width="0.3" stroke-linecap="round"/><path d="M43.5,37.95 L44.0,37.95" fill="none" stroke="#2b8975" stroke-width="0.3" stroke-linecap="round"/><path d="M44.0,37.95 L43.5,37.95" fill="none" stroke="#2b8975" stroke-width="0.3" stroke-linecap="round"/><path d="M57.75,40.2 L60.25,40.2" fill="none" stroke="#2b8975" stroke-width="0.3" stroke-linecap="round"/><path d="M57.5,36.45 L57.75,36.45" fill="none" stroke="#2b8975" stroke-width="0.3" stroke-linecap="round"/><path d="M62.25,26.700000000000003 L57.5,26.700000000000003" fill="none" stroke="#2b8975" stroke-width="0.3" stroke-linecap="round"/><path d="M57.75,36.45 L57.75,40.2" fill="none" stroke="#2b8975" stroke-width="0.3" stroke-linecap="round"/><path d="M63.5,37.2 L60.75,37.2" fill="none" stroke="#2b8975" stroke-width="0.3" stroke-linecap="round"/><path d="M46.25,51.7 L46.25,50.2" fill="none" stroke="#2b8975" stroke-width="0.3" stroke-linecap="round"/><path d="M59.25,51.7 L46.25,51.7" fill="none" stroke="#2b8975" stroke-width="0.3" stroke-linecap="round"/><path d="M46.25,50.2 L39.25,50.2" fill="none" stroke="#2b8975" stroke-width="0.3" stroke-linecap="round"/><rect x="45.15" y="34.300000000000004" width="1.8" height="1.8" rx="0.9" fill="#c5b47a" transform="rotate(0 46.05 35.2)"/><rect x="51.199999999999996" y="32.1" width="2.2" height="2.2" rx="1.1" fill="#c5b47a" transform="rotate(0 52.3 33.2)"/><rect x="38.699999999999996" y="32.1" width="2.2" height="2.2" rx="1.1" fill="#c5b47a" transform="rotate(0 39.8 33.2)"/><rect x="51.199999999999996" y="27.1" width="2.2" height="2.2" rx="1.1" fill="#c5b47a" transform="rotate(0 52.3 28.200000000000003)"/><rect x="38.699999999999996" y="27.1" width="2.2" height="2.2" rx="1.1" fill="#c5b47a" transform="rotate(0 39.8 28.200000000000003)"/><rect x="49.06" y="24.820000000000004" width="1.6" height="1.6" rx="0.8" fill="#c5b47a" transform="rotate(0 49.86 25.620000000000005)"/><rect x="41.440000000000005" y="34.980000000000004" width="1.6" height="1.6" rx="0.8" fill="#c5b47a" transform="rotate(0 42.24 35.78)"/><rect x="33.3" y="47.0" width="3.4" height="3.4" rx="1.7" fill="#c5b47a" transform="rotate(0 35.0 48.7)"/><rect x="9.3" y="47.0" width="3.4" height="3.4" rx="1.7" fill="#c5b47a" transform="rotate(0 11.0 48.7)"/><rect x="25.150000000000002" y="34.300000000000004" width="1.8" height="1.8" rx="0.9" fill="#c5b47a" transform="rotate(0 26.05 35.2)"/><rect x="31.199999999999996" y="32.1" width="2.2" height="2.2" rx="1.1" fill="#c5b47a" transform="rotate(0 32.3 33.2)"/><rect x="18.7" y="32.1" width="2.2" height="2.2" rx="1.1" fill="#c5b47a" transform="rotate(0 19.8 33.2)"/><rect x="31.199999999999996" y="27.1" width="2.2" height="2.2" rx="1.1" fill="#c5b47a" transform="rotate(0 32.3 28.200000000000003)"/><rect x="18.7" y="27.1" width="2.2" height="2.2" rx="1.1" fill="#c5b47a" transform="rotate(0 19.8 28.200000000000003)"/><rect x="29.06" y="24.820000000000004" width="1.6" height="1.6" rx="0.8" fill="#c5b47a" transform="rotate(0 29.86 25.620000000000005)"/><rect x="21.439999999999998" y="34.980000000000004" width="1.6" height="1.6" rx="0.8" fill="#c5b47a" transform="rotate(0 22.24 35.78)"/><rect x="76.64999999999999" y="3.0000000000000027" width="3.4" height="3.4" rx="1.7" fill="#c5b47a" transform="rotate(0 78.35 4.700000000000003)"/><rect x="9.3" y="3.0000000000000027" width="3.4" height="3.4" rx="1.7" fill="#c5b47a" transform="rotate(0 11.0 4.700000000000003)"/><rect x="45.15" y="13.590000000000002" width="1.8" height="1.8" rx="0.9" fill="#c5b47a" transform="rotate(0 46.05 14.490000000000002)"/><rect x="51.199999999999996" y="11.390000000000002" width="2.2" height="2.2" rx="1.1" fill="#c5b47a" transform="rotate(0 52.3 12.490000000000002)"/><rect x="38.699999999999996" y="11.390000000000002" width="2.2" height="2.2" rx="1.1" fill="#c5b47a" transform="rotate(0 39.8 12.490000000000002)"/><rect x="51.199999999999996" y="6.390000000000002" width="2.2" height="2.2" rx="1.1" fill="#c5b47a" transform="rotate(0 52.3 7.490000000000002)"/><rect x="38.699999999999996" y="6.390000000000002" width="2.2" height="2.2" rx="1.1" fill="#c5b47a" transform="rotate(0 39.8 7.490000000000002)"/><rect x="49.06" y="4.110000000000004" width="1.6" height="1.6" rx="0.8" fill="#c5b47a" transform="rotate(0 49.86 4.910000000000004)"/><rect x="41.440000000000005" y="14.27" width="1.6" height="1.6" rx="0.8" fill="#c5b47a" transform="rotate(0 42.24 15.07)"/><rect x="75.3" y="47.0" width="3.4" height="3.4" rx="1.7" fill="#c5b47a" transform="rotate(0 77.0 48.7)"/><rect x="25.150000000000002" y="13.590000000000002" width="1.8" height="1.8" rx="0.9" fill="#c5b47a" transform="rotate(0 26.05 14.490000000000002)"/><rect x="31.199999999999996" y="11.390000000000002" width="2.2" height="2.2" rx="1.1" fill="#c5b47a" transform="rotate(0 32.3 12.490000000000002)"/><rect x="18.7" y="11.390000000000002" width="2.2" height="2.2" rx="1.1" fill="#c5b47a" transform="rotate(0 19.8 12.490000000000002)"/><rect x="31.199999999999996" y="6.390000000000002" width="2.2" height="2.2" rx="1.1" fill="#c5b47a" transform="rotate(0 32.3 7.490000000000002)"/><rect x="18.7" y="6.390000000000002" width="2.2" height="2.2" rx="1.1" fill="#c5b47a" transform="rotate(0 19.8 7.490000000000002)"/><rect x="29.06" y="4.110000000000004" width="1.6" height="1.6" rx="0.8" fill="#c5b47a" transform="rotate(0 29.86 4.910000000000004)"/><rect x="21.439999999999998" y="14.27" width="1.6" height="1.6" rx="0.8" fill="#c5b47a" transform="rotate(0 22.24 15.07)"/><rect x="65.14999999999999" y="34.300000000000004" width="1.8" height="1.8" rx="0.9" fill="#c5b47a" transform="rotate(0 66.05 35.2)"/><rect x="71.2" y="32.1" width="2.2" height="2.2" rx="1.1" fill="#c5b47a" transform="rotate(0 72.3 33.2)"/><rect x="58.699999999999996" y="32.1" width="2.2" height="2.2" rx="1.1" fill="#c5b47a" transform="rotate(0 59.8 33.2)"/><rect x="71.2" y="27.1" width="2.2" height="2.2" rx="1.1" fill="#c5b47a" transform="rotate(0 72.3 28.200000000000003)"/><rect x="58.699999999999996" y="27.1" width="2.2" height="2.2" rx="1.1" fill="#c5b47a" transform="rotate(0 59.8 28.200000000000003)"/><rect x="69.06" y="24.820000000000004" width="1.6" height="1.6" rx="0.8" fill="#c5b47a" transform="rotate(0 69.86 25.620000000000005)"/><rect x="61.440000000000005" y="34.980000000000004" width="1.6" height="1.6" rx="0.8" fill="#c5b47a" transform="rotate(0 62.24 35.78)"/><rect x="65.14999999999999" y="13.590000000000002" width="1.8" height="1.8" rx="0.9" fill="#c5b47a" transform="rotate(0 66.05 14.490000000000002)"/><rect x="71.2" y="11.390000000000002" width="2.2" height="2.2" rx="1.1" fill="#c5b47a" transform="rotate(0 72.3 12.490000000000002)"/><rect x="58.699999999999996" y="11.390000000000002" width="2.2" height="2.2" rx="1.1" fill="#c5b47a" transform="rotate(0 59.8 12.490000000000002)"/><rect x="71.2" y="6.390000000000002" width="2.2" height="2.2" rx="1.1" fill="#c5b47a" transform="rotate(0 72.3 7.490000000000002)"/><rect x="58.699999999999996" y="6.390000000000002" width="2.2" height="2.2" rx="1.1" fill="#c5b47a" transform="rotate(0 59.8 7.490000000000002)"/><rect x="69.06" y="4.110000000000004" width="1.6" height="1.6" rx="0.8" fill="#c5b47a" transform="rotate(0 69.86 4.910000000000004)"/><rect x="61.440000000000005" y="14.27" width="1.6" height="1.6" rx="0.8" fill="#c5b47a" transform="rotate(0 62.24 15.07)"/><circle cx="64.25" cy="40.7" r="0.3" fill="#9a9e6e"/><circle cx="64.25" cy="40.7" r="0.15" fill="#102820"/><circle cx="59.25" cy="38.7" r="0.3" fill="#9a9e6e"/><circle cx="59.25" cy="38.7" r="0.15" fill="#102820"/><circle cx="57.75" cy="50.2" r="0.3" fill="#9a9e6e"/><circle cx="57.75" cy="50.2" r="0.15" fill="#102820"/><circle cx="33.75" cy="37.7" r="0.3" fill="#9a9e6e"/><circle cx="33.75" cy="37.7" r="0.15" fill="#102820"/><circle cx="39.75" cy="31.450000000000003" r="0.3" fill="#9a9e6e"/><circle cx="39.75" cy="31.450000000000003" r="0.15" fill="#102820"/><circle cx="42.0" cy="28.200000000000003" r="0.3" fill="#9a9e6e"/><circle cx="42.0" cy="28.200000000000003" r="0.15" fill="#102820"/><circle cx="44.0" cy="52.45" r="0.3" fill="#9a9e6e"/><circle cx="44.0" cy="52.45" r="0.15" fill="#102820"/><circle cx="40.25" cy="52.45" r="0.3" fill="#9a9e6e"/><circle cx="40.25" cy="52.45" r="0.15" fill="#102820"/><circle cx="40.25" cy="34.95" r="0.3" fill="#9a9e6e"/><circle cx="40.25" cy="34.95" r="0.15" fill="#102820"/><circle cx="45.5" cy="50.95" r="0.3" fill="#9a9e6e"/><circle cx="45.5" cy="50.95" r="0.15" fill="#102820"/><circle cx="29.0" cy="50.95" r="0.3" fill="#9a9e6e"/><circle cx="29.0" cy="50.95" r="0.15" fill="#102820"/><circle cx="29.0" cy="28.200000000000003" r="0.3" fill="#9a9e6e"/><circle cx="29.0" cy="28.200000000000003" r="0.15" fill="#102820"/><circle cx="41.25" cy="27.450000000000003" r="0.3" fill="#9a9e6e"/><circle cx="41.25" cy="27.450000000000003" r="0.15" fill="#102820"/><circle cx="41.0" cy="51.7" r="0.3" fill="#9a9e6e"/><circle cx="41.0" cy="51.7" r="0.15" fill="#102820"/><circle cx="41.25" cy="28.950000000000003" r="0.3" fill="#9a9e6e"/><circle cx="41.25" cy="28.950000000000003" r="0.15" fill="#102820"/><circle cx="44.75" cy="51.7" r="0.3" fill="#9a9e6e"/><circle cx="44.75" cy="51.7" r="0.15" fill="#102820"/><circle cx="38.5" cy="44.45" r="0.3" fill="#9a9e6e"/><circle cx="38.5" cy="44.45" r="0.15" fill="#102820"/><circle cx="38.0" cy="7.450000000000003" r="0.3" fill="#9a9e6e"/><circle cx="38.0" cy="7.450000000000003" r="0.15" fill="#102820"/><circle cx="46.0" cy="44.45" r="0.3" fill="#9a9e6e"/><circle cx="46.0" cy="44.45" r="0.15" fill="#102820"/><circle cx="59.75" cy="44.45" r="0.3" fill="#9a9e6e"/><circle cx="59.75" cy="44.45" r="0.15" fill="#102820"/><circle cx="58.25" cy="29.700000000000003" r="0.3" fill="#9a9e6e"/><circle cx="58.25" cy="29.700000000000003" r="0.15" fill="#102820"/><circle cx="69.0" cy="29.700000000000003" r="0.3" fill="#9a9e6e"/><circle cx="69.0" cy="29.700000000000003" r="0.15" fill="#102820"/><circle cx="69.0" cy="42.45" r="0.3" fill="#9a9e6e"/><circle cx="69.0" cy="42.45" r="0.15" fill="#102820"/><circle cx="45.5" cy="39.45" r="0.3" fill="#9a9e6e"/><circle cx="45.5" cy="39.45" r="0.15" fill="#102820"/><circle cx="23.75" cy="39.45" r="0.3" fill="#9a9e6e"/><circle cx="23.75" cy="39.45" r="0.15" fill="#102820"/><circle cx="33.75" cy="21.450000000000003" r="0.3" fill="#9a9e6e"/><circle cx="33.75" cy="21.450000000000003" r="0.15" fill="#102820"/><circle cx="39.25" cy="40.2" r="0.3" fill="#9a9e6e"/><circle cx="39.25" cy="40.2" r="0.15" fill="#102820"/><circle cx="22.25" cy="21.450000000000003" r="0.3" fill="#9a9e6e"/><circle cx="22.25" cy="21.450000000000003" r="0.15" fill="#102820"/><circle cx="33.75" cy="34.95" r="0.3" fill="#9a9e6e"/><circle cx="33.75" cy="34.95" r="0.15" fill="#102820"/><circle cx="46.0" cy="40.2" r="0.3" fill="#9a9e6e"/><circle cx="46.0" cy="40.2" r="0.15" fill="#102820"/><circle cx="39.25" cy="34.95" r="0.3" fill="#9a9e6e"/><circle cx="39.25" cy="34.95" r="0.15" fill="#102820"/><circle cx="67.25" cy="37.95" r="0.3" fill="#9a9e6e"/><circle cx="67.25" cy="37.95" r="0.15" fill="#102820"/><circle cx="30.0" cy="43.7" r="0.3" fill="#9a9e6e"/><circle cx="30.0" cy="43.7" r="0.15" fill="#102820"/><circle cx="60.0" cy="37.95" r="0.3" fill="#9a9e6e"/><circle cx="60.0" cy="37.95" r="0.15" fill="#102820"/><circle cx="26.0" cy="43.7" r="0.3" fill="#9a9e6e"/><circle cx="26.0" cy="43.7" r="0.15" fill="#102820"/><circle cx="37.5" cy="43.7" r="0.3" fill="#9a9e6e"/><circle cx="37.5" cy="43.7" r="0.15" fill="#102820"/><circle cx="67.25" cy="42.45" r="0.3" fill="#9a9e6e"/><circle cx="67.25" cy="42.45" r="0.15" fill="#102820"/><circle cx="58.5" cy="50.95" r="0.3" fill="#9a9e6e"/><circle cx="58.5" cy="50.95" r="0.15" fill="#102820"/><circle cx="34.0" cy="43.7" r="0.3" fill="#9a9e6e"/><circle cx="34.0" cy="43.7" r="0.15" fill="#102820"/><circle cx="28.0" cy="42.95" r="0.3" fill="#9a9e6e"/><circle cx="28.0" cy="42.95" r="0.15" fill="#102820"/><circle cx="58.0" cy="41.45" r="0.3" fill="#9a9e6e"/><circle cx="58.0" cy="41.45" r="0.15" fill="#102820"/><circle cx="66.0" cy="42.45" r="0.3" fill="#9a9e6e"/><circle cx="66.0" cy="42.45" r="0.15" fill="#102820"/><circle cx="58.75" cy="42.2" r="0.3" fill="#9a9e6e"/><circle cx="58.75" cy="42.2" r="0.15" fill="#102820"/><circle cx="63.75" cy="42.2" r="0.3" fill="#9a9e6e"/><circle cx="63.75" cy="42.2" r="0.15" fill="#102820"/><circle cx="32.0" cy="42.2" r="0.3" fill="#9a9e6e"/><circle cx="32.0" cy="42.2" r="0.15" fill="#102820"/><circle cx="58.5" cy="39.45" r="0.3" fill="#9a9e6e"/><circle cx="58.5" cy="39.45" r="0.15" fill="#102820"/><circle cx="37.25" cy="36.2" r="0.3" fill="#9a9e6e"/><circle cx="37.25" cy="36.2" r="0.15" fill="#102820"/><circle cx="42.25" cy="21.450000000000003" r="0.3" fill="#9a9e6e"/><circle cx="42.25" cy="21.450000000000003" r="0.15" fill="#102820"/><circle cx="37.25" cy="21.450000000000003" r="0.3" fill="#9a9e6e"/><circle cx="37.25" cy="21.450000000000003" r="0.15" fill="#102820"/><circle cx="44.75" cy="38.7" r="0.3" fill="#9a9e6e"/><circle cx="44.75" cy="38.7" r="0.15" fill="#102820"/><circle cx="44.0" cy="37.95" r="0.3" fill="#9a9e6e"/><circle cx="44.0" cy="37.95" r="0.15" fill="#102820"/><circle cx="60.25" cy="40.2" r="0.3" fill="#9a9e6e"/><circle cx="60.25" cy="40.2" r="0.15" fill="#102820"/><circle cx="57.5" cy="26.700000000000003" r="0.3" fill="#9a9e6e"/><circle cx="57.5" cy="26.700000000000003" r="0.15" fill="#102820"/><circle cx="62.25" cy="26.700000000000003" r="0.3" fill="#9a9e6e"/><circle cx="62.25" cy="26.700000000000003" r="0.15" fill="#102820"/><circle cx="57.5" cy="36.45" r="0.3" fill="#9a9e6e"/><circle cx="57.5" cy="36.45" r="0.15" fill="#102820"/><circle cx="60.75" cy="37.2" r="0.3" fill="#9a9e6e"/><circle cx="60.75" cy="37.2" r="0.15" fill="#102820"/><circle cx="63.5" cy="37.2" r="0.3" fill="#9a9e6e"/><circle cx="63.5" cy="37.2" r="0.15" fill="#102820"/><circle cx="59.25" cy="51.7" r="0.3" fill="#9a9e6e"/><circle cx="59.25" cy="51.7" r="0.15" fill="#102820"/><circle cx="39.25" cy="50.2" r="0.3" fill="#9a9e6e"/><circle cx="39.25" cy="50.2" r="0.15" fill="#102820"/><circle cx="46.05" cy="35.2" r="0.9" fill="#0a1818"/><circle cx="52.3" cy="33.2" r="0.6" fill="#0a1818"/><circle cx="39.8" cy="33.2" r="0.6" fill="#0a1818"/><circle cx="52.3" cy="28.200000000000003" r="0.6" fill="#0a1818"/><circle cx="39.8" cy="28.200000000000003" r="0.6" fill="#0a1818"/><circle cx="49.86" cy="25.620000000000005" r="0.4" fill="#0a1818"/><circle cx="42.24" cy="35.78" r="0.4" fill="#0a1818"/><circle cx="35.0" cy="48.7" r="1.7" fill="#0a1818"/><circle cx="11.0" cy="48.7" r="1.7" fill="#0a1818"/><circle cx="26.05" cy="35.2" r="0.9" fill="#0a1818"/><circle cx="32.3" cy="33.2" r="0.6" fill="#0a1818"/><circle cx="19.8" cy="33.2" r="0.6" fill="#0a1818"/><circle cx="32.3" cy="28.200000000000003" r="0.6" fill="#0a1818"/><circle cx="19.8" cy="28.200000000000003" r="0.6" fill="#0a1818"/><circle cx="29.86" cy="25.620000000000005" r="0.4" fill="#0a1818"/><circle cx="22.24" cy="35.78" r="0.4" fill="#0a1818"/><circle cx="78.35" cy="4.700000000000003" r="1.7" fill="#0a1818"/><circle cx="11.0" cy="4.700000000000003" r="1.7" fill="#0a1818"/><circle cx="46.05" cy="14.490000000000002" r="0.9" fill="#0a1818"/><circle cx="52.3" cy="12.490000000000002" r="0.6" fill="#0a1818"/><circle cx="39.8" cy="12.490000000000002" r="0.6" fill="#0a1818"/><circle cx="52.3" cy="7.490000000000002" r="0.6" fill="#0a1818"/><circle cx="39.8" cy="7.490000000000002" r="0.6" fill="#0a1818"/><circle cx="49.86" cy="4.910000000000004" r="0.4" fill="#0a1818"/><circle cx="42.24" cy="15.07" r="0.4" fill="#0a1818"/><circle cx="77.0" cy="48.7" r="1.7" fill="#0a1818"/><circle cx="26.05" cy="14.490000000000002" r="0.9" fill="#0a1818"/><circle cx="32.3" cy="12.490000000000002" r="0.6" fill="#0a1818"/><circle cx="19.8" cy="12.490000000000002" r="0.6" fill="#0a1818"/><circle cx="32.3" cy="7.490000000000002" r="0.6" fill="#0a1818"/><circle cx="19.8" cy="7.490000000000002" r="0.6" fill="#0a1818"/><circle cx="29.86" cy="4.910000000000004" r="0.4" fill="#0a1818"/><circle cx="22.24" cy="15.07" r="0.4" fill="#0a1818"/><circle cx="66.05" cy="35.2" r="0.9" fill="#0a1818"/><circle cx="72.3" cy="33.2" r="0.6" fill="#0a1818"/><circle cx="59.8" cy="33.2" r="0.6" fill="#0a1818"/><circle cx="72.3" cy="28.200000000000003" r="0.6" fill="#0a1818"/><circle cx="59.8" cy="28.200000000000003" r="0.6" fill="#0a1818"/><circle cx="69.86" cy="25.620000000000005" r="0.4" fill="#0a1818"/><circle cx="62.24" cy="35.78" r="0.4" fill="#0a1818"/><circle cx="66.05" cy="14.490000000000002" r="0.9" fill="#0a1818"/><circle cx="72.3" cy="12.490000000000002" r="0.6" fill="#0a1818"/><circle cx="59.8" cy="12.490000000000002" r="0.6" fill="#0a1818"/><circle cx="72.3" cy="7.490000000000002" r="0.6" fill="#0a1818"/><circle cx="59.8" cy="7.490000000000002" r="0.6" fill="#0a1818"/><circle cx="69.86" cy="4.910000000000004" r="0.4" fill="#0a1818"/><circle cx="62.24" cy="15.07" r="0.4" fill="#0a1818"/></svg>